<svg id="text" xmlns="http://www.w3.org/2000/svg" viewBox="0 0 149.15 44.44">
    <defs>
        <style>.cls-1{stroke:#000;stroke-miterlimit:10;stroke-width:1.8px;}</style>
    </defs>
    <path class="cls-1"
          d="M1688.53,627.24,1666.78,646l-19.71-19.72-20,20-9-9.11,10-10-20.94-20.94-20,20-20-20-10.93,10.93,20,20-9.1,9.1-19-19.12h-2l21,20.95,10.93-10.93-20-20,9.1-9.1,19.11,19.11h0l20.94,20.95,10-10,10,10,20-20,19.65,19.65,23.85-20.57Zm-100.59,0,19.11-19.11,19.11,19.11-19.11,19.12Z"
          transform="translate(-1543.85 -605.03)"/>
    <path d="M1686.3,645.44h-1v2.75h-.63v-2.75h-1v-.51h2.63Zm2.48,1.8.89-2.31h.91v3.26H1690v-2.54h0l-1,2.54h-.45l-1-2.54h0v2.54H1687v-3.26h.92Z"
          transform="translate(-1543.85 -605.03)"/>
</svg>